<svg focusable="false" version="1.1" id="Layer_1" xmlns="http://www.w3.org/2000/svg" xmlns:xlink="http://www.w3.org/1999/xlink" x="0px" y="0px" viewBox="0 0 18 18" style="enable-background:new 0 0 18 18" xml:space="preserve"><g><path fill="#FFF" d="M18,5.3c0-1-0.2-1.6-0.4-2.2c-0.2-0.6-0.5-1.1-1-1.6c-0.5-0.5-1-0.8-1.6-1c-0.6-0.2-1.2-0.4-2.2-0.4C11.8,0,11.4,0,9,0
						S6.3,0,5.3,0c-1,0-1.6,0.2-2.2,0.4C2.5,0.7,2,1,1.5,1.5s-0.8,1-1,1.6C0.3,3.7,0.1,4.3,0.1,5.3C0,6.2,0,6.6,0,9c0,2.4,0,2.8,0.1,3.7
						c0,1,0.2,1.6,0.4,2.2c0.2,0.6,0.5,1.1,1,1.6s1,0.8,1.6,1c0.6,0.2,1.2,0.4,2.2,0.4C6.3,18,6.6,18,9,18s2.8,0,3.7-0.1
						c1,0,1.6-0.2,2.2-0.4c0.6-0.2,1.1-0.5,1.6-1c0.5-0.5,0.8-1,1-1.6c0.2-0.6,0.4-1.2,0.4-2.2c0-1,0.1-1.3,0.1-3.7
						C18,6.6,18,6.2,18,5.3z M16.3,12.6c0,0.9-0.2,1.4-0.3,1.7c-0.2,0.4-0.4,0.7-0.7,1s-0.6,0.5-1,0.7c-0.3,0.1-0.8,0.3-1.7,0.3
						c-0.9,0-1.2,0.1-3.6,0.1s-2.7,0-3.6-0.1c-0.9,0-1.4-0.2-1.7-0.3c-0.4-0.2-0.7-0.4-1-0.7s-0.5-0.6-0.7-1c-0.1-0.3-0.3-0.8-0.3-1.7
						c0-0.9-0.1-1.2-0.1-3.6c0-2.4,0-2.7,0.1-3.6C1.7,4.5,1.9,4,2,3.7c0.2-0.4,0.4-0.7,0.7-1C3,2.3,3.3,2.1,3.7,2C4,1.9,4.5,1.7,5.4,1.7
						c0.9,0,1.2-0.1,3.6-0.1c2.4,0,2.7,0,3.6,0.1c0.9,0,1.4,0.2,1.7,0.3c0.4,0.2,0.7,0.4,1,0.7s0.5,0.6,0.7,1c0.1,0.3,0.3,0.8,0.3,1.7
						c0,0.9,0.1,1.2,0.1,3.6C16.4,11.4,16.4,11.7,16.3,12.6z"></path><path fill="#FFF" d="M9,4.4C6.5,4.4,4.4,6.4,4.4,9c0,2.6,2.1,4.6,4.6,4.6s4.6-2.1,4.6-4.6C13.6,6.4,11.6,4.4,9,4.4z M9,12c-1.7,0-3-1.3-3-3
						c0-1.7,1.3-3,3-3c1.7,0,3,1.3,3,3C12,10.7,10.7,12,9,12z"></path><path fill="#FFF" d="M13.8,3.1c-0.6,0-1.1,0.5-1.1,1.1c0,0.6,0.5,1.1,1.1,1.1c0.6,0,1.1-0.5,1.1-1.1C14.9,3.6,14.4,3.1,13.8,3.1z"></path></g></svg>